<svg width="146" height="166" viewBox="0 0 146 166" fill="none" xmlns="http://www.w3.org/2000/svg">
<path d="M101.046 99.6272C66.9855 111.222 124.817 152.827 78.189 138.57C69.1885 135.818 60.878 130.855 43.0991 117.869C20.7175 105.747 13.9968 71.6658 27.7895 46.1991C41.0353 21.7422 65.8749 19.7423 97.0874 23.9801C119.469 36.1019 114.839 74.1606 101.046 99.6272Z" fill="white"/>
<path d="M84.3761 140.562C69.1906 137.717 54.5359 132.359 41.4944 125.361C34.5158 121.614 28.401 117.903 23.0304 113.074C14.5269 105.434 10.3949 95.3649 9.60386 84.8452C7.76162 60.2154 20.1715 39.6877 46.0462 27.8557C46.2075 27.7821 48.293 26.7371 48.2462 26.8843C47.0024 30.5049 46.0584 33.602 45.3142 37.2789C44.518 41.2244 40.8335 45.3604 38.3512 48.8078C28.3542 62.6926 24.1597 79.228 29.3221 95.0661C31.3361 101.246 35.4681 107.071 41.8015 110.77C56.8933 119.579 70.6946 130.263 84.5374 140.294C84.9017 140.558 84.8497 140.649 84.3761 140.562Z" fill="url(#paint0_linear_1547_112313)"/>
<path fill-rule="evenodd" clip-rule="evenodd" d="M78.0969 30.0817C68.6509 30.48 60.1201 32.9734 52.4994 37.5707C52.2518 37.7177 51.9095 37.575 51.9095 37.3242C51.9008 34.1312 51.2031 31.1822 50.477 28.1135L50.477 28.1135C50.3231 27.463 50.168 26.8071 50.0178 26.1424C50.0178 26.1424 51.1761 25.6497 50.8959 25.7772C59.495 21.9063 69.141 19.1768 78.9819 18.9092L78.9779 18.966C102.43 18.0055 118.919 29.3002 124.893 47.2411L124.865 47.2481C128.957 59.2988 128.643 71.3494 123.923 83.3913L123.827 83.3604C119.992 92.9808 113.069 101.37 104.587 108.759L104.67 108.809C104.122 109.332 103.481 109.909 102.793 110.53C99.3029 113.675 94.5961 117.918 94.5741 121.611C94.5426 127.573 106.694 132.921 112.263 135.24C112.426 135.305 112.463 135.486 112.337 135.595C107.862 139.445 98.0236 145.355 91.0406 142.249C90.0573 141.812 88.8111 140.83 87.302 139.311C86.3507 138.355 85.3595 137.368 84.3435 136.357L84.3433 136.357C79.0298 131.07 73.0344 125.104 68.4879 119.184C66.1322 116.121 66.2269 114.005 70.5386 112.526C79.0916 109.583 85.7619 106.64 92.1454 101.264L92.0568 101.211C99.9622 94.6999 105.262 87.0254 107.962 78.1915L107.977 78.1961C110.706 69.0727 110.836 60.122 108.372 51.3483L108.462 51.3253C104.912 38.5488 94.9446 30.1503 78.0906 30.1719L78.0969 30.0817ZM127.715 154.56C127.715 160.878 122.593 166 116.275 166C109.956 166 104.834 160.878 104.834 154.56C104.834 148.241 109.956 143.119 116.275 143.119C122.593 143.119 127.715 148.241 127.715 154.56Z" fill="url(#paint1_linear_1547_112313)"/>
<path d="M47.6833 66.0103H47.2301C46.4978 66.0103 45.8204 66.2072 45.1979 66.6008C44.5754 66.9853 44.0582 67.5208 43.6463 68.2073C42.9781 69.3241 42.6439 70.9719 42.6439 73.1505V73.6037C42.6439 74.8395 42.795 75.9425 43.0971 76.9129C43.3991 77.8923 43.7287 78.6109 44.0857 79.0686C44.8638 80.0664 45.9531 80.5653 47.3537 80.5653C48.1135 80.5653 48.7451 80.4097 49.2486 80.0985C49.7612 79.7872 50.4112 79.0778 51.1984 77.9701C51.9948 76.8625 52.393 75.375 52.393 73.5075V72.8484C52.393 71.8323 52.2649 70.862 52.0086 69.9374C51.7522 69.0037 51.4273 68.2714 51.0336 67.7405C50.64 67.2004 50.1457 66.7793 49.5507 66.4772C48.9557 66.166 48.3332 66.0103 47.6833 66.0103ZM54.0682 83.6274C54.7273 84.4695 55.0569 84.8998 55.0569 84.9181C55.0569 85.1469 54.9241 85.3529 54.6587 85.536C54.0087 85.9937 53.3588 86.2226 52.7088 86.2226H52.3656C51.5234 86.2226 50.1594 85.7832 48.2737 84.9044C44.4381 83.1193 42.1267 81.8377 41.3395 81.0597C40.5614 80.2724 39.9343 79.1876 39.4583 77.8054C38.9915 76.4231 38.758 74.9401 38.758 73.3565V72.972C38.758 71.5806 38.9594 70.2533 39.3622 68.99C40.1494 66.4818 41.7377 64.7883 44.1269 63.9095C45.1247 63.5433 46.2918 63.3602 47.6283 63.3602C50.2647 63.3602 52.393 64.2207 54.0133 65.9417C54.6815 66.6466 55.2216 67.5803 55.6336 68.7428C56.0547 69.9054 56.2652 71.2282 56.2652 72.7111V73.0819C56.256 75.8464 55.51 78.2539 54.027 80.3044C53.3954 81.1741 53.0796 81.6776 53.0796 81.8149C53.0887 82.1902 53.4183 82.7943 54.0682 83.6274ZM72.5503 81.6501C72.5503 82.4648 71.8088 82.8722 70.3259 82.8722C69.8773 82.8722 69.415 82.7486 68.939 82.5014C68.463 82.2451 68.1701 82.1169 68.0602 82.1169L66.6047 82.6799C65.8266 82.982 65.1218 83.133 64.4901 83.133H64.1194C63.3413 83.133 62.6319 82.9637 61.9911 82.625C61.3503 82.2771 60.8606 81.7966 60.5219 81.1832C60.0275 80.2953 59.7804 78.2905 59.7804 75.169C59.7804 73.7593 59.7575 72.9171 59.7117 72.6425C59.6659 72.3679 59.5561 71.9971 59.3822 71.5303C59.2082 71.0634 59.1213 70.6652 59.1213 70.3356C59.1213 70.0061 59.2494 69.7635 59.5057 69.6079C59.7621 69.4523 60.206 69.3745 60.8377 69.3745H61.2084C62.1238 69.3745 62.7097 69.6857 62.966 70.3082C63.1216 70.6835 63.1994 72.171 63.1994 74.7708C63.1994 77.3706 63.3413 78.9725 63.6251 79.5767C63.9821 80.3456 64.632 80.7301 65.5749 80.7301C66.0601 80.7301 66.5224 80.6065 66.9617 80.3594C67.4103 80.1122 67.7398 79.7827 67.9504 79.3707C68.2891 78.7208 68.4584 77.3843 68.4584 75.3612C68.4584 74.4275 68.3989 73.5442 68.2799 72.7111C68.1609 71.8781 68.1014 71.2922 68.1014 70.9535C68.1014 69.9466 68.9024 69.4431 70.5044 69.4431C71.2916 69.4431 71.7493 69.7452 71.8775 70.3494C71.9141 70.5233 71.9324 71.814 71.9324 74.2216C71.9324 76.6291 71.9965 78.2219 72.1246 79C72.2528 79.7781 72.3535 80.3411 72.4267 80.6889C72.5091 81.0276 72.5503 81.2473 72.5503 81.348V81.6501ZM78.1938 63.4152H78.3998C79.6356 63.4152 80.2535 63.9095 80.2535 64.8981V65.4199C80.226 65.5572 80.2123 65.7266 80.2123 65.928C80.2123 66.1293 80.0704 66.3719 79.7866 66.6557C79.512 66.9303 79.1596 67.0676 78.7293 67.0676L78.3311 67.1088H77.9466C77.434 67.1088 77.0358 66.9898 76.752 66.7518C76.4683 66.5047 76.3264 66.1751 76.3264 65.7632C76.3081 65.6899 76.2989 65.6259 76.2989 65.5709L76.2852 65.3101L76.2989 65.2414C76.2989 65.1956 76.2989 65.1499 76.2989 65.1041L76.3264 64.8432C76.3264 64.4221 76.482 64.0788 76.7932 63.8134C77.1045 63.5479 77.5713 63.4152 78.1938 63.4152ZM77.4386 83.1193C76.3401 83.1102 75.7909 82.6845 75.7909 81.8423C75.7909 81.4395 75.8778 80.991 76.0517 80.4967C76.2348 80.0024 76.363 79.563 76.4362 79.1785C76.5186 78.794 76.5598 77.6726 76.5598 75.8144C76.5598 73.9469 76.5278 72.8988 76.4637 72.6699C76.4088 72.4319 76.2623 72.107 76.0243 71.695C75.7863 71.2831 75.6673 70.9673 75.6673 70.7476V70.5828C75.6673 70.1343 75.8137 69.8413 76.1067 69.704C76.3996 69.5575 76.8985 69.4843 77.6034 69.4843L78.1801 69.4431H78.743C79.4113 69.4431 79.8003 69.7132 79.9102 70.2533C79.9468 70.4272 79.9651 71.2007 79.9651 72.5738V75.5123L79.9788 76.089V77.0639L80.0063 77.6269C80.0155 77.755 80.02 77.9747 80.02 78.286C80.02 78.588 80.1757 79.1464 80.4869 79.9612C80.7981 80.7759 80.9538 81.316 80.9538 81.5814V81.7325C80.9538 82.657 80.1619 83.1193 78.5783 83.1193H77.4386ZM85.7871 69.4706H86.2677C87.238 69.4797 87.9063 69.7956 88.2724 70.418C88.3914 70.6194 88.5059 70.7201 88.6157 70.7201C88.7347 70.7201 88.9682 70.6103 89.316 70.3906C89.6639 70.1709 90.03 69.9695 90.4145 69.7864C90.799 69.5942 91.2933 69.498 91.8975 69.498C92.5016 69.498 92.9502 69.6354 93.2431 69.91C93.5452 70.1754 93.6962 70.5096 93.6962 70.9124C93.6962 71.306 93.5681 71.6904 93.3118 72.0658C93.0555 72.4319 92.7213 72.615 92.3094 72.615L90.6205 72.4365C90.3367 72.4365 90.0026 72.5555 89.6181 72.7935C89.2428 73.0315 88.9407 73.4068 88.7118 73.9195C88.483 74.4321 88.3686 75.2377 88.3686 76.3361C88.3686 77.4255 88.4921 78.437 88.7393 79.3707C88.9865 80.2861 89.11 81.0001 89.11 81.5128C89.11 82.538 88.1718 83.0507 86.2952 83.0507H86.0343C84.7619 83.0507 84.1256 82.5701 84.1256 81.6089C84.1256 81.3251 84.2172 80.904 84.4003 80.3456C84.5925 79.7781 84.7069 79.3158 84.7435 78.9588C84.7893 78.5926 84.8122 77.5765 84.8122 75.9105C84.8122 74.2444 84.7802 73.2329 84.7161 72.8759C84.652 72.5097 84.5193 72.1344 84.3179 71.75C84.1165 71.3563 84.0158 70.9947 84.0158 70.6652C84.0158 70.3356 84.1714 70.0564 84.4827 69.8276C84.7939 69.5896 85.2287 69.4706 85.7871 69.4706ZM98.4335 63.4152H98.6394C99.8752 63.4152 100.493 63.9095 100.493 64.8981V65.4199C100.466 65.5572 100.452 65.7266 100.452 65.928C100.452 66.1293 100.31 66.3719 100.026 66.6557C99.7517 66.9303 99.3992 67.0676 98.969 67.0676L98.5708 67.1088H98.1863C97.6737 67.1088 97.2755 66.9898 96.9917 66.7518C96.7079 66.5047 96.566 66.1751 96.566 65.7632C96.5477 65.6899 96.5386 65.6259 96.5386 65.5709L96.5248 65.3101L96.5386 65.2414C96.5386 65.1956 96.5386 65.1499 96.5386 65.1041L96.566 64.8432C96.566 64.4221 96.7217 64.0788 97.0329 63.8134C97.3441 63.5479 97.811 63.4152 98.4335 63.4152ZM97.6783 83.1193C96.5798 83.1102 96.0305 82.6845 96.0305 81.8423C96.0305 81.4395 96.1175 80.991 96.2914 80.4967C96.4745 80.0024 96.6027 79.563 96.6759 79.1785C96.7583 78.794 96.7995 77.6726 96.7995 75.8144C96.7995 73.9469 96.7674 72.8988 96.7034 72.6699C96.6484 72.4319 96.502 72.107 96.264 71.695C96.0259 71.2831 95.9069 70.9673 95.9069 70.7476V70.5828C95.9069 70.1343 96.0534 69.8413 96.3463 69.704C96.6393 69.5575 97.1382 69.4843 97.843 69.4843L98.4197 69.4431H98.9827C99.651 69.4431 100.04 69.7132 100.15 70.2533C100.186 70.4272 100.205 71.2007 100.205 72.5738V75.5123L100.219 76.089V77.0639L100.246 77.6269C100.255 77.755 100.26 77.9747 100.26 78.286C100.26 78.588 100.415 79.1464 100.727 79.9612C101.038 80.7759 101.193 81.316 101.193 81.5814V81.7325C101.193 82.657 100.402 83.1193 98.8179 83.1193H97.6783Z" fill="black"/>
<defs>
<linearGradient id="paint0_linear_1547_112313" x1="47.1115" y1="26.1891" x2="71.8802" y2="140.612" gradientUnits="userSpaceOnUse">
<stop offset="0.505208" stop-color="#35C3D1"/>
<stop offset="1" stop-color="#0096A5"/>
</linearGradient>
<linearGradient id="paint1_linear_1547_112313" x1="88.8666" y1="18.9092" x2="88.8666" y2="166" gradientUnits="userSpaceOnUse">
<stop offset="0.421875" stop-color="#FF9568"/>
<stop offset="0.71875" stop-color="#FF6A29"/>
</linearGradient>
</defs>
</svg>
